<?xml version="1.0" standalone="no"?>
<!DOCTYPE svg PUBLIC "-//W3C//DTD SVG 20010904//EN"
 "http://www.w3.org/TR/2001/REC-SVG-20010904/DTD/svg10.dtd">
<svg version="1.0" xmlns="http://www.w3.org/2000/svg"
 width="512.000000pt" height="512.000000pt" viewBox="0 0 512.000000 512.000000"
 preserveAspectRatio="xMidYMid meet">
<metadata>
Created by potrace 1.14, written by Peter Selinger 2001-2017
</metadata>
<g transform="translate(0.000000,512.000000) scale(0.100000,-0.100000)"
fill="#000000" stroke="none">
<path d="M2488 4615 c-2 -2 -32 -6 -68 -9 -67 -6 -97 -13 -190 -41 -73 -21
-81 -25 -180 -74 -218 -110 -392 -285 -503 -506 -35 -71 -82 -202 -93 -259
-38 -207 -31 -387 21 -596 52 -205 130 -400 270 -675 137 -269 195 -371 510
-902 203 -341 204 -342 264 -448 l44 -77 27 43 c15 24 74 123 130 219 95 161
329 558 379 640 11 19 24 42 28 50 3 8 16 31 28 50 20 32 58 100 126 225 51
93 185 360 213 425 16 36 37 85 48 109 23 52 105 295 111 331 3 14 9 43 15 65
6 22 13 63 17 90 3 28 8 64 10 80 6 42 6 203 0 245 -5 36 -15 101 -21 135 -2
11 -16 56 -30 100 -128 388 -453 676 -857 759 -65 14 -290 29 -299 21z m170
-714 c22 -3 82 -27 117 -49 225 -138 261 -443 74 -630 -180 -180 -477 -151
-619 61 -49 73 -61 111 -65 212 -9 180 100 339 270 395 53 18 153 28 188 19
15 -4 31 -8 35 -8z"/>
<path d="M1805 1574 c-322 -113 -492 -290 -480 -502 6 -112 60 -205 175 -304
154 -132 497 -239 850 -265 159 -12 533 -4 560 12 3 1 31 6 63 9 32 4 64 9 70
11 7 3 23 6 37 9 175 31 380 108 504 190 69 46 140 120 177 182 33 58 54 163
45 226 -16 107 -101 225 -221 306 -76 51 -217 117 -302 141 l-31 9 -81 -134
c-52 -87 -76 -136 -68 -139 6 -3 50 -16 97 -31 120 -37 198 -75 249 -120 36
-33 43 -45 43 -76 0 -89 -133 -170 -379 -232 -54 -14 -116 -27 -138 -31 -23
-3 -52 -8 -65 -10 -100 -20 -470 -27 -600 -12 -155 19 -176 23 -306 55 -220
55 -362 141 -370 225 -2 26 36 77 81 109 46 31 163 79 259 106 l66 18 -76 129
c-42 72 -79 133 -82 137 -4 4 -38 -4 -77 -18z"/>
</g>
</svg>
